mtllib unnamed.mtl
# vertices
v -64 16 -64
v -64 -16 -64
v -64 -16 64
v -64 16 64
v 304 -16 -144
v 304 16 -144
v 304 16 128
v 304 -16 128
v -64 16 -64
v -64 -16 -64
v -64 -16 64
v -64 16 64
v 304 -16 -144
v 304 16 -144
v 304 16 128
v 304 -16 128
v 288 16 416
v 304 16 -416
v 288 -16 416
v 304 -16 -400
v 1072 -16 -880
v 1072 16 -880
v 656 -16 400
v 656 16 400
v 336 16 48
v 320 16 256
v 544 48 256
v 560 48 48
v 1408 16 240
v 1408 16 96
v 1408 48 96
v 1408 48 240
v 1408 48 288
v 1424 48 -528
v 1424 16 -528
v 1408 16 288
v 2192 16 -1008
v 2192 48 -1008
v 1776 16 272
v 1776 48 272
v 1216 8 -38
v 1216 8 26
v 1216 24 26
v 1216 24 -38
v 1280 24 26
v 1280 8 26
v 1280 8 -38
v 1280 24 -38
v 1050.129912078004 -128 -988.6046503464459
v 604.7679326556994 -128 606.6782520374285
v 604.7679326557087 -112 606.6782520374354
v 1050.1299120780022 -112 -988.6046503463972
v 1478.4152747012085 -112 840.4635456246633
v 1478.415274701258 -128 840.4635456246722
v 1923.777254123669 -128 -754.8193567590994
v 1923.7772541236118 -112 -754.8193567590661
v 1760 24 -304
v 1728 24 336
v 1728 40 336
v 1760 40 -304
v 2000 40 336
v 2000 24 336
v 2032 24 -304
v 2032 40 -304
v 2000 16 80
v 2000 16 336
v 2000 32 336
v 2000 32 80
v 2960 32 336
v 2960 16 336
v 2960 16 80
v 2960 32 80
v 1984 260 238.3919189857843
v 1984 194.39191898579156 304
v 1984 201.01933598376127 320
v 1984 276 245.0193359837565
v 2000 276 245.0193359837565
v 2000 201.01933598376127 320
v 2000 194.39191898579156 304
v 2000 260 238.3919189857843
v 1984 260 145.60808101420844
v 1984 260 238.39191898578792
v 1984 276 245.01933598375786
v 1984 276 138.9806640162438
v 2000 276 245.01933598375786
v 2000 260 238.39191898578792
v 2000 260 145.60808101420844
v 2000 276 138.9806640162438
v 1984 260 145.60808101421168
v 1984 276 138.98066401624197
v 1984 201.0193359837558 64
v 1984 194.39191898578574 80
v 2000 276 138.98066401624197
v 2000 260 145.60808101421165
v 2000 194.39191898578576 80
v 2000 201.0193359837558 64
v 1984 94.98066401624601 64
v 1984 101.60808101421571 80
v 1984 194.3919189857843 80
v 1984 201.01933598375456 64
v 2000 201.01933598375467 64
v 2000 194.3919189857844 80
v 2000 101.60808101421571 80
v 2000 94.98066401624601 64
v 1984 20 138.980664016246
v 1984 36 145.6080810142157
v 1984 101.60808101421415 80
v 1984 94.98066401624384 64
v 2000 36 145.6080810142157
v 2000 20 138.98066401624604
v 2000 101.60808101421415 80
v 2000 94.98066401624386 64
v 1984 20 138.98066401624237
v 1984 20 245.01933598375763
v 1984 36 238.39191898578792
v 1984 36 145.60808101421372
v 2000 36 238.39191898578792
v 2000 20 245.01933598375763
v 2000 20 138.98066401624237
v 2000 36 145.60808101421372
v 1984 20 245.01933598375763
v 1984 94.98066401624601 320
v 1984 101.60808101421561 304
v 1984 36 238.3919189857865
v 2000 101.6080810142157 304
v 2000 94.9806640162461 320
v 2000 20 245.01933598375763
v 2000 36 238.3919189857865
v 1984 101.60808101421281 304
v 1984 94.98066401624237 320
v 1984 201.01933598375763 320
v 1984 194.39191898578792 304
v 2000 201.01933598375763 320
v 2000 94.98066401624237 320
v 2000 194.39191898578792 304
v 2000 101.60808101421281 304

# texture coordinates
vt 0.5 0.125
vt 0.5 -0.125
vt -0.5 -0.125
vt -0.5 0.125
vt 2.375 -0.125
vt 2.375 0.125
vt 2.375 -1
vt -0.5 -0.5
vt -0.5 0.5
vt 2.375 1.125
vt -1 0.125
vt -1 -0.125
vt 1.125 -0.125
vt 1.125 0.125
vt -3.25 0.125
vt 3.25 0.125
vt -3.25 -0.125
vt 3.125 -0.125
vt 8.375 -0.125
vt 8.375 0.125
vt 5.125 -3.125
vt 2.25 -3.25
vt 2.375 3.125
vt 8.375 6.875
vt 2.375 3.25
vt 5.125 0.125
vt 2.25 0.125
vt 2.25 -0.125
vt 5.125 -0.125
vt -3.125 -0.125
vt 6.875 -0.125
vt 6.875 0.125
vt -3.125 0.125
vt 2.1735296 0.13492644
vt 2.0485296 -1.4900736
vt 3.7985296 -1.4900736
vt 3.9235296 0.13492644
vt 11 -1.875
vt 2.5 -2
vt 2.625 -0.375
vt 11 -0.75
vt 4.375 -0.375
vt 4.25 -2
vt 4.25 0.375
vt 2.5 0.125
vt 11 0.125
vt 11 0.375
vt 2.625 0.125
vt 4.375 0.375
vt -0.75 0.375
vt -1.875 0.375
vt -1.875 0.125
vt -0.75 0.125
vt -2.25 0.375
vt 4.125 0.375
vt 4.125 0.125
vt -2.25 0.125
vt 17.125 0.125
vt 11.125 0.125
vt 11.125 0.375
vt 17.125 0.375
vt 13.875 -2.125
vt 11 -2.25
vt 11.125 4.125
vt 17.125 7.875
vt 13.875 0.375
vt 13.875 0.125
vt 7.875 0.375
vt -2.125 0.375
vt -2.125 0.125
vt 7.875 0.125
vt 0.296875 0.0625
vt -0.203125 0.0625
vt -0.203125 0.1875
vt 0.296875 0.1875
vt 10 0.1875
vt 9.5 0.1875
vt 9.5 0.0625
vt 10 0.0625
vt 10 -0.203125
vt 9.5 -0.203125
vt 9.5 0.296875
vt 10 0.296875
vt 7.723474 -1
vt -4.7396736 -1
vt -4.7396736 -0.875
vt 7.723474 -0.875
vt 11.550119 -0.875
vt 4.7247496 -0.875
vt 4.7247496 -1
vt 11.550119 -1
vt 11.550119 -6.5661216
vt 4.7247496 -4.7396736
vt 8.20414 7.723474
vt 15.02951 5.897026
vt 15.02951 -1
vt 8.20414 -1
vt 8.20414 -0.875
vt 15.02951 -0.875
vt 5.897026 -0.875
vt -6.5661216 -0.875
vt -6.5661216 -1
vt 5.897026 -1
vt 2.375 0.1875
vt -2.625 0.1875
vt -2.625 0.3125
vt 2.375 0.3125
vt 15.625 0.3125
vt 13.5 0.3125
vt 13.5 0.1875
vt 15.625 0.1875
vt 15.625 -2.625
vt 13.5 -2.625
vt 13.75 2.375
vt 15.875 2.375
vt 15.875 0.1875
vt 13.75 0.1875
vt 13.75 0.3125
vt 15.875 0.3125
vt -0.625 0.125
vt -2.625 0.125
vt -2.625 0.25
vt -0.625 0.25
vt 23.125 0.25
vt 15.625 0.25
vt 15.625 0.125
vt 23.125 0.125
vt 23.125 -2.625
vt 15.625 -0.625
vt 23.125 -0.625
vt -1.8624369 2.03125
vt -2.375 1.5186869
vt -2.5 1.5704635
vt -1.9142135 2.15625
vt 15.625 -1.9142135
vt 15.5 -1.9142135
vt 15.5 -2.5
vt 15.625 -2.5
vt 15.5 -2.375
vt 15.625 -2.375
vt 15.5 -1.8624369
vt 15.625 -1.8624369
vt 15.625 2.03125
vt 15.5 2.03125
vt 15.5 2.15625
vt 15.625 2.15625
vt -1.1375631 2.03125
vt -1.0857865 2.15625
vt 15.5 -1.1375631
vt 15.625 -1.1375631
vt 15.625 -1.0857865
vt 15.5 -1.0857865
vt -0.5 1.5704635
vt -0.625 1.5186869
vt 15.5 -0.625
vt 15.5 -0.5
vt 15.625 -0.5
vt 15.5 1.5186869
vt 15.625 1.5186869
vt -0.5 0.74203646
vt -0.625 0.7938131
vt 15.5 0.7938131
vt 15.625 0.7938131
vt 15.625 0.74203646
vt 15.5 0.74203646
vt 15.5 1.5704635
vt 15.625 1.5704635
vt -1.0857865 0.15625
vt -1.1375631 0.28125
vt 15.625 0.28125
vt 15.5 0.28125
vt 15.5 0.15625
vt 15.625 0.15625
vt -1.9142135 0.15625
vt -1.8624369 0.28125
vt -2.5 0.74203646
vt -2.375 0.7938131

# normals
vn -1 0 0
vn -0.2124296443310437 0 -0.9771763639228009
vn -0.17134117475124774 0 0.9852117548196745
vn 0 -1 -0
vn -0 1 -0
vn 1 0 0
vn -0.9998151400298467 0 -0.019227214231343204
vn -0.9997597943805274 -0.009801566611573798 -0.019603133223147596
vn -0.5171156399255817 0 -0.8559155419457903
vn -0.4879500364742666 -0.39036002917941326 -0.7807200583588265
vn 0.04343722427630694 0 0.9990561583550596
vn 0.9510340687309481 0 0.30908607233755814
vn -0.14141298885238146 0.9898909219666703 -0.01087792221941396
vn 0.014627012952620635 -0.10238909066834444 0.9946368807782031
vn 0.018515344006020947 0 0.9998285763251312
vn 0.042687600317831385 -0.29881320222481966 -0.9533564070982342
vn 0.056513312022655776 -0 -0.9984018457335854
vn -0.9998078216567244 0 -0.01960407493444558
vn -0.52999894000318 0 -0.847998304005088
vn 0 0 1
vn 0 0 -1
vn -0.9631702307199548 6.744708667781965e-13 -0.2688923700198077
vn -0.25850148211910773 -2.664093953352935e-13 0.9660108610891622
vn 0.2585014821191842 2.749441812823966e-12 -0.9660108610891417
vn 0.9631702307199337 2.882453595075834e-12 0.2688923700198829
vn -0.9987523388778445 0 -0.04993761694389223
vn 0.9987523388778445 0 0.04993761694389223
vn 0 0.7071067811865491 0.7071067811865459
vn 0 -0.923879532511283 0.3826834323650987
vn 0 -0.7071067811865506 -0.7071067811865445
vn -0 0.38268343236511 -0.9238795325112784
vn 0 -0.38268343236511 0.9238795325112784
vn 0 -0.3826834323650987 -0.923879532511283
vn 0 0.3826834323650987 0.923879532511283
vn 0 -0.9238795325112713 -0.38268343236512675
vn -0 0.707106781186549 -0.7071067811865461
vn 4.901148312336309e-15 -0.7071067811865461 0.7071067811865489
vn -6.564558905433211e-15 0.9238795325112713 0.38268343236512675
vn 0 -0.3826834323651114 0.9238795325112777
vn 0 0.7071067811865485 0.7071067811865467
vn -0 0.923879532511283 -0.3826834323650987
vn 5.024295867788077e-15 -0.7071067811865471 -0.7071067811865479
vn -0 0.3826834323651114 -0.9238795325112777
vn 0 -0.7071067811865477 0.7071067811865472
vn -0 0.7071067811865447 -0.7071067811865502

o entity0_brush0
usemtl Forest1/Dirt_01-128x128
f  1/1/1  2/2/1  3/3/1  4/4/1
usemtl Forest1/Dirt_01-128x128
f  5/5/2  2/3/2  1/4/2  6/6/2
usemtl Forest1/Dirt_01-128x128
f  7/6/3  4/4/3  3/3/3  8/5/3
usemtl Forest1/Dirt_01-128x128
f  8/7/4  3/8/4  2/9/4  5/10/4
usemtl Forest1/Dirt_01-128x128
f  6/10/5  1/9/5  4/8/5  7/7/5
usemtl Forest1/Dirt_01-128x128
f  7/11/6  8/12/6  5/13/6  6/14/6

o entity0_brush1
usemtl Forest1/Dirt_01-128x128
f  9/1/1  10/2/1  11/3/1  12/4/1
usemtl Forest1/Dirt_01-128x128
f  13/5/2  10/3/2  9/4/2  14/6/2
usemtl Forest1/Dirt_01-128x128
f  15/6/3  12/4/3  11/3/3  16/5/3
usemtl Forest1/Dirt_01-128x128
f  16/7/4  11/8/4  10/9/4  13/10/4
usemtl Forest1/Dirt_01-128x128
f  14/10/5  9/9/5  12/8/5  15/7/5
usemtl Forest1/Dirt_01-128x128
f  15/11/6  16/12/6  13/13/6  14/14/6

o entity0_brush2
usemtl Forest1/Dirt_01-128x128
f  17/15/7  18/16/7  19/17/7
usemtl Forest1/Dirt_01-128x128
f  19/17/8  18/16/8  20/18/8
usemtl Forest1/Dirt_01-128x128
f  21/19/9  18/6/9  22/20/9
usemtl Forest1/Dirt_01-128x128
f  20/5/10  18/6/10  21/19/10
usemtl Forest1/Dirt_01-128x128
f  23/21/4  19/22/4  20/23/4  21/24/4
usemtl Forest1/Dirt_01-128x128
f  22/24/5  18/25/5  17/22/5  24/21/5
usemtl Forest1/Dirt_01-128x128
f  24/26/11  17/27/11  19/28/11  23/29/11
usemtl Forest1/Dirt_01-128x128
f  23/30/12  21/31/12  22/32/12  24/33/12

o entity0_brush3
usemtl Forest1/Dirt_01-128x128
f  25/34/13  26/35/13  27/36/13  28/37/13
usemtl Forest1/Dirt_01-128x128
f  29/38/4  26/39/4  25/40/4  30/41/4
usemtl Forest1/Dirt_01-128x128
f  31/41/5  28/42/5  27/43/5  32/38/5
usemtl Forest1/Dirt_01-128x128
f  27/44/14  26/45/14  29/46/14
usemtl Forest1/Dirt_01-128x128
f  32/47/15  27/44/15  29/46/15
usemtl Forest1/Dirt_01-128x128
f  30/46/16  25/48/16  28/49/16
usemtl Forest1/Dirt_01-128x128
f  30/46/17  28/49/17  31/47/17
usemtl Forest1/Dirt_01-128x128
f  31/50/6  32/51/6  29/52/6  30/53/6

o entity0_brush4
usemtl Forest1/Dirt_01-128x128
f  33/54/18  34/55/18  35/56/18  36/57/18
usemtl Forest1/Dirt_01-128x128
f  37/58/19  35/59/19  34/60/19  38/61/19
usemtl Forest1/Dirt_01-128x128
f  39/62/4  36/63/4  35/64/4  37/65/4
usemtl Forest1/Dirt_01-128x128
f  38/65/5  34/64/5  33/63/5  40/62/5
usemtl Forest1/Dirt_01-128x128
f  40/66/11  33/47/11  36/46/11  39/67/11
usemtl Forest1/Dirt_01-128x128
f  38/68/12  40/69/12  39/70/12  37/71/12

o entity0_brush5
usemtl Forest1/Dirt_01-128x128
f  41/72/1  42/73/1  43/74/1  44/75/1
usemtl Forest1/Dirt_01-128x128
f  45/76/20  43/77/20  42/78/20  46/79/20
usemtl Forest1/Dirt_01-128x128
f  46/80/4  42/81/4  41/82/4  47/83/4
usemtl Forest1/Dirt_01-128x128
f  48/83/5  44/82/5  43/81/5  45/80/5
usemtl Forest1/Dirt_01-128x128
f  47/79/21  41/78/21  44/77/21  48/76/21
usemtl Forest1/Dirt_01-128x128
f  48/75/6  45/74/6  46/73/6  47/72/6

o entity0_brush6
usemtl Forest1/Metal_03-128x128
f  49/84/22  50/85/22  51/86/22  52/87/22
usemtl Forest1/Metal_03-128x128
f  53/88/23  51/89/23  50/90/23  54/91/23
usemtl Forest1/Metal_03-128x128
f  54/92/4  50/93/4  49/94/4  55/95/4
usemtl Forest1/Metal_03-128x128
f  56/95/5  52/94/5  51/93/5  53/92/5
usemtl Forest1/Metal_03-128x128
f  55/96/24  49/97/24  52/98/24  56/99/24
usemtl Forest1/Metal_03-128x128
f  56/100/25  53/101/25  54/102/25  55/103/25

o entity0_brush7
usemtl Forest1/Dirt_03-128x128
f  57/104/26  58/105/26  59/106/26  60/107/26
usemtl Forest1/Dirt_03-128x128
f  61/108/20  59/109/20  58/110/20  62/111/20
usemtl Forest1/Dirt_03-128x128
f  62/112/4  58/113/4  57/114/4  63/115/4
usemtl Forest1/Dirt_03-128x128
f  64/115/5  60/114/5  59/113/5  61/112/5
usemtl Forest1/Dirt_03-128x128
f  63/116/21  57/117/21  60/118/21  64/119/21
usemtl Forest1/Dirt_03-128x128
f  64/107/27  61/106/27  62/105/27  63/104/27

o entity0_brush8
usemtl Forest1/Dirt_03-128x128
f  65/120/1  66/121/1  67/122/1  68/123/1
usemtl Forest1/Dirt_03-128x128
f  69/124/20  67/125/20  66/126/20  70/127/20
usemtl Forest1/Dirt_03-128x128
f  70/128/4  66/112/4  65/129/4  71/130/4
usemtl Forest1/Dirt_03-128x128
f  72/130/5  68/129/5  67/112/5  69/128/5
usemtl Forest1/Dirt_03-128x128
f  71/127/21  65/126/21  68/125/21  72/124/21
usemtl Forest1/Dirt_03-128x128
f  72/123/6  69/122/6  70/121/6  71/120/6

o entity0_brush9
usemtl Forest1/Metal_12-128x128
f  73/131/1  74/132/1  75/133/1  76/134/1
usemtl Forest1/Metal_12-128x128
f  77/135/28  76/136/28  75/137/28  78/138/28
usemtl Forest1/Metal_12-128x128
f  78/138/29  75/137/29  74/139/29  79/140/29
usemtl Forest1/Metal_12-128x128
f  79/140/30  74/139/30  73/141/30  80/142/30
usemtl Forest1/Metal_12-128x128
f  80/143/31  73/144/31  76/145/31  77/146/31
usemtl Forest1/Metal_12-128x128
f  79/132/6  80/131/6  77/134/6  78/133/6

o entity0_brush10
usemtl Forest1/Metal_12-128x128
f  81/147/1  82/131/1  83/134/1  84/148/1
usemtl Forest1/Metal_12-128x128
f  85/146/32  83/145/32  82/144/32  86/143/32
usemtl Forest1/Metal_12-128x128
f  86/142/4  82/141/4  81/149/4  87/150/4
usemtl Forest1/Metal_12-128x128
f  88/151/5  84/152/5  83/136/5  85/135/5
usemtl Forest1/Metal_12-128x128
f  87/143/33  81/144/33  84/145/33  88/146/33
usemtl Forest1/Metal_12-128x128
f  88/148/6  85/134/6  86/131/6  87/147/6

o entity0_brush11
usemtl Forest1/Metal_12-128x128
f  89/147/1  90/148/1  91/153/1  92/154/1
usemtl Forest1/Metal_12-128x128
f  93/146/34  90/145/34  89/144/34  94/143/34
usemtl Forest1/Metal_12-128x128
f  95/129/35  92/155/35  91/156/35  96/157/35
usemtl Forest1/Metal_12-128x128
f  96/157/36  91/156/36  90/152/36  93/151/36
usemtl Forest1/Metal_12-128x128
f  94/143/37  89/144/37  92/158/37  95/159/37
usemtl Forest1/Metal_12-128x128
f  95/154/6  96/153/6  93/148/6  94/147/6

o entity0_brush12
usemtl Forest1/Metal_12-128x128
f  97/160/1  98/161/1  99/154/1  100/153/1
usemtl Forest1/Metal_12-128x128
f  101/157/38  100/156/38  99/155/38  102/129/38
usemtl Forest1/Metal_12-128x128
f  102/159/20  99/158/20  98/162/20  103/163/20
usemtl Forest1/Metal_12-128x128
f  103/129/29  98/155/29  97/156/29  104/157/29
usemtl Forest1/Metal_12-128x128
f  104/164/21  97/165/21  100/166/21  101/167/21
usemtl Forest1/Metal_12-128x128
f  103/161/6  104/160/6  101/153/6  102/154/6

o entity0_brush13
usemtl Forest1/Metal_12-128x128
f  105/168/1  106/169/1  107/161/1  108/160/1
usemtl Forest1/Metal_12-128x128
f  109/170/39  106/171/39  105/172/39  110/173/39
usemtl Forest1/Metal_12-128x128
f  111/129/40  107/155/40  106/149/40  109/150/40
usemtl Forest1/Metal_12-128x128
f  112/157/41  108/156/41  107/155/41  111/129/41
usemtl Forest1/Metal_12-128x128
f  110/173/42  105/172/42  108/165/42  112/164/42
usemtl Forest1/Metal_12-128x128
f  112/160/6  111/161/6  109/169/6  110/168/6

o entity0_brush14
usemtl Forest1/Metal_12-128x128
f  113/168/1  114/174/1  115/175/1  116/169/1
usemtl Forest1/Metal_12-128x128
f  117/170/34  115/171/34  114/172/34  118/173/34
usemtl Forest1/Metal_12-128x128
f  118/135/4  114/136/4  113/152/4  119/151/4
usemtl Forest1/Metal_12-128x128
f  120/150/5  116/149/5  115/141/5  117/142/5
usemtl Forest1/Metal_12-128x128
f  119/173/43  113/172/43  116/171/43  120/170/43
usemtl Forest1/Metal_12-128x128
f  120/169/6  117/175/6  118/174/6  119/168/6

o entity0_brush15
usemtl Forest1/Metal_12-128x128
f  121/174/1  122/176/1  123/177/1  124/175/1
usemtl Forest1/Metal_12-128x128
f  125/140/38  123/139/38  122/137/38  126/138/38
usemtl Forest1/Metal_12-128x128
f  126/138/44  122/137/44  121/136/44  127/135/44
usemtl Forest1/Metal_12-128x128
f  128/170/45  124/171/45  123/162/45  125/163/45
usemtl Forest1/Metal_12-128x128
f  127/173/33  121/172/33  124/171/33  128/170/33
usemtl Forest1/Metal_12-128x128
f  128/175/6  125/177/6  126/176/6  127/174/6

o entity0_brush16
usemtl Forest1/Metal_12-128x128
f  129/177/1  130/176/1  131/133/1  132/132/1
usemtl Forest1/Metal_12-128x128
f  133/167/20  131/166/20  130/165/20  134/164/20
usemtl Forest1/Metal_12-128x128
f  135/140/41  132/139/41  131/137/41  133/138/41
usemtl Forest1/Metal_12-128x128
f  134/138/35  130/137/35  129/139/35  136/140/35
usemtl Forest1/Metal_12-128x128
f  136/163/21  129/162/21  132/158/21  135/159/21
usemtl Forest1/Metal_12-128x128
f  134/176/6  136/177/6  135/132/6  133/133/6

